Coordinates
version=1
nRows=10
nColumns=63
inDegrees=yes

Units are S.I. units (second, meters, Newtons, ...)
If the header above contains a line with 'inDegrees', this indicates whether rotational values are in degrees (yes) or radians (no).

endheader
time	pelvis_tilt	pelvis_list	pelvis_rotation	pelvis_tx	pelvis_ty	pelvis_tz	hip_flexion_r	hip_adduction_r	hip_rotation_r	knee_angle_r	knee_angle_r_beta	ankle_angle_r	subtalar_angle_r	mtp_angle_r	hip_flexion_l	hip_adduction_l	hip_rotation_l	knee_angle_l	knee_angle_l_beta	ankle_angle_l	subtalar_angle_l	mtp_angle_l	L5_S1_Flex_Ext	L5_S1_Lat_Bending	L5_S1_axial_rotation	L4_L5_Flex_Ext	L4_L5_Lat_Bending	L4_L5_axial_rotation	L3_L4_Flex_Ext	L3_L4_Lat_Bending	L3_L4_axial_rotation	L2_L3_Flex_Ext	L2_L3_Lat_Bending	L2_L3_axial_rotation	L1_L2_Flex_Ext	L1_L2_Lat_Bending	L1_L2_axial_rotation	L1_T12_Flex_Ext	L1_T12_Lat_Bending	L1_T12_axial_rotation	Abs_r3	Abs_r2	Abs_r1	Abs_t1	Abs_t2	neck_flexion	neck_bending	neck_rotation	arm_flex_r	arm_add_r	arm_rot_r	elbow_flex_r	pro_sup_r	wrist_flex_r	wrist_dev_r	arm_flex_l	arm_add_l	arm_rot_l	elbow_flex_l	pro_sup_l	wrist_flex_l	wrist_dev_l
      2.92592593	     -0.59216772	     -6.65216135	    107.14485745	      0.26403455	      0.81395021	      0.61307375	      3.01215536	     -0.61434339	    -12.97026252	     13.18726445	      0.23016118	     24.93683082	    -11.26012230	      0.00000000	      4.10772575	     -1.21798685	      9.70206384	      9.79429367	      0.17094267	     24.42417924	      9.97962181	      0.00000000	     -0.02561066	      0.71078004	      2.30015737	     -0.04756155	      0.94533745	      2.44391721	     -0.04207575	      1.72819059	      2.44391721	     -0.02927042	      1.72819059	      2.01263770	     -0.02378206	      1.44942265	      1.86887787	     -0.01463393	      1.10099828	      1.72511803	     -0.18293437	      8.04048595	     12.79278526	      0.00000000	      0.00000000	     20.13561050	    -11.06349474	    -18.78370358	     51.39578306	     -5.48675298	     59.37117550	    117.93544516	     87.92310275	      1.18024739	     22.93873376	     11.50091305	     -4.72433206	    147.59656523	      0.45824931	      1.10813826	     -2.91220547	    -24.39378532
      2.94444444	     -0.38845230	     -6.02897825	    106.92762880	      0.26355375	      0.81499293	      0.61294167	      2.36569327	     -0.20387905	    -12.52054553	     12.95915524	      0.22617993	     24.75140335	    -11.17814382	      0.00000000	      3.25811887	     -1.58157306	     10.01956663	      9.23332992	      0.16115201	     24.42261154	      9.73499348	      0.00000000	     -0.02893072	      0.75916130	      2.43869475	     -0.05372725	      1.00968453	      2.59111318	     -0.04753029	      1.84582478	      2.59111318	     -0.03306492	      1.84582478	      2.13385791	     -0.02686507	      1.54808172	      1.98143949	     -0.01653102	      1.17594085	      1.82902107	     -0.20664927	      8.58778445	     13.56328862	      0.00000000	      0.00000000	     19.51846314	    -11.73031736	    -18.28657128	     48.67429003	     -8.97884779	     56.97231590	    116.57685245	     86.87463719	      2.83786086	     23.27421681	     11.64365914	     -3.60441041	    155.52278864	      0.31529170	      1.13956245	    -19.70591579	    -24.41748538
      2.96296296	     -0.42746190	     -5.56372480	    106.69786325	      0.26377333	      0.81494688	      0.61224278	      1.83923839	     -0.04907885	    -12.05098302	     12.87484333	      0.22470841	     24.93036483	    -11.08688978	      0.00000000	      2.46100235	     -1.74149466	      9.78517784	      8.59716411	      0.15004882	     24.85866531	     10.23669270	      0.00000000	     -0.03274520	      0.74519694	      2.59559229	     -0.06081111	      0.99111193	      2.75781681	     -0.05379709	      1.81187184	      2.75781681	     -0.03742449	      1.81187184	      2.27114325	     -0.03040719	      1.51960560	      2.10891873	     -0.01871061	      1.15431006	      1.94669422	     -0.23389569	      8.42981683	     14.43590563	      0.00000000	      0.00000000	     19.27111773	    -12.12758813	    -18.64137664	     46.41144484	    -12.59151932	     54.43220229	    114.92161110	     82.79909730	      4.58625930	     23.01967571	     11.71928400	     -3.10086447	    164.58272055	      0.23360400	      1.30608338	    -40.85039401	    -24.18308495
      2.98148148	     -0.55427259	     -5.13697454	    106.42829753	      0.26425229	      0.81466442	      0.61162309	      1.37430532	     -0.00116494	    -11.63971218	     12.91083863	      0.22533664	     25.07518063	    -11.11079109	      0.00000000	      1.63037265	     -1.80917440	      9.53739691	      7.83636799	      0.13677042	     25.39044890	     10.67117434	      0.00000000	     -0.04155218	      0.72032368	      2.85942986	     -0.07716655	      0.95803049	      3.03814422	     -0.06826607	      1.75139499	      3.03814422	     -0.04748998	      1.75139499	      2.50200113	     -0.03858535	      1.46888404	      2.32328676	     -0.02374291	      1.11578138	      2.14457239	     -0.29680304	      8.14844550	     15.90329104	      0.00000000	      0.00000000	     18.90177281	    -12.82303722	    -19.79000629	     44.41118854	    -16.79933734	     51.94245664	    112.99504674	     76.10419829	      6.70507430	     21.84234143	     12.58699381	     -2.68950327	    171.26400823	      0.18688585	      1.44131206	    -54.35288191	    -23.79291133
      3.00000000	     -0.57548650	     -4.61555120	    106.20816183	      0.26453374	      0.81456496	      0.61125979	      0.79372078	      0.17900723	    -11.26603967	     12.87088424	      0.22463931	     24.85867437	    -11.45997637	      0.00000000	      0.73441398	     -2.01125039	      8.98507795	      7.05331181	      0.12310351	     25.90655675	     11.35780045	      0.00000000	     -0.07018294	      0.72754174	      3.10973643	     -0.13033674	      0.96763051	      3.30409496	     -0.11530355	      1.76894499	      3.30409496	     -0.08021208	      1.76894499	      2.72101938	     -0.06517188	      1.48360312	      2.52666085	     -0.04010253	      1.12696215	      2.33230232	     -0.50130971	      8.23009767	     17.29542112	      0.00000000	      0.00000000	     18.61327575	    -13.34672734	    -20.33534925	     42.60769826	    -20.95968351	     49.80112620	    110.75796706	     68.34732704	     10.10950476	     21.10791937	     13.85703884	     -1.98836942	    175.80209787	      0.15994083	      1.66316788	    -62.72055530	    -23.39447613
      3.01851852	     -0.62209084	     -4.23188078	    105.94292192	      0.26478370	      0.81454415	      0.61112860	      0.37390857	      0.22710211	    -11.28859744	     12.93818129	      0.22581386	     24.59577692	    -11.49855081	      0.00000000	     -0.04841840	     -2.11873172	      8.72499438	      6.27740805	      0.10956144	     26.09786553	     11.49094537	      0.00000000	     -0.09108146	      0.73399702	      3.39255265	     -0.16914738	      0.97621604	      3.60458719	     -0.14963773	      1.78464037	      3.60458719	     -0.10409700	      1.78464037	      2.96848357	     -0.08457824	      1.49676673	      2.75644903	     -0.05204395	      1.13696139	      2.54441449	     -0.65058577	      8.30312115	     18.86836006	      0.00000000	      0.00000000	     18.14761633	    -14.05895992	    -21.36382700	     40.34614176	    -24.94632751	     47.91582851	    108.75429392	     64.76790927	     11.95293120	     18.45715500	     15.43624018	     -1.07971616	    179.69990334	      0.14350045	      1.74920430	    -66.82564811	    -23.22607772
      3.03703704	     -0.54918944	     -3.83583808	    105.75044883	      0.26477550	      0.81474196	      0.61104604	     -0.10399522	      0.39608791	    -11.40769000	     12.89392588	      0.22504146	     24.14331963	    -11.66989959	      0.00000000	     -0.77094348	     -2.33613880	      8.62475942	      5.66797098	      0.09892476	     26.07135629	     11.43724300	      0.00000000	     -0.11168430	      0.75979622	      3.58511256	     -0.20740891	      1.01052898	      3.80918210	     -0.18348613	      1.84736854	      3.80918210	     -0.12764398	      1.84736854	      3.13697349	     -0.10371004	      1.54937646	      2.91290396	     -0.06381641	      1.17692435	      2.68883442	     -0.79774977	      8.59496685	     19.93932053	      0.00000000	      0.00000000	     17.79607608	    -14.25373688	    -21.63133192	     37.67508105	    -27.89451477	     46.16953432	    106.82790415	     62.23232834	     12.81468525	     15.76360314	     16.90787153	     -0.07668546	    182.35985988	      0.13447414	      1.84536339	    -68.16800296	    -23.32249740
      3.05555556	     -0.47828107	     -3.54058119	    105.62878628	      0.26471085	      0.81489933	      0.61096603	     -0.43825710	      0.53135058	    -11.52338074	     12.95817807	      0.22616287	     23.75384982	    -12.05855778	      0.00000000	     -1.30465338	     -2.52011765	      8.71384419	      5.33542168	      0.09312068	     25.89341112	     11.17353307	      0.00000000	     -0.11611111	      0.77738622	      3.66774418	     -0.21562994	      1.03392367	      3.89697820	     -0.19075894	      1.89013686	      3.89697820	     -0.13270339	      1.89013686	      3.20927616	     -0.10782078	      1.58524598	      2.98004215	     -0.06634589	      1.20417126	      2.75080814	     -0.82937006	      8.79394840	     20.39889283	      0.00000000	      0.00000000	     17.46188752	    -14.22068719	    -21.45119311	     34.61764970	    -29.54950302	     44.62883653	    105.16427438	     60.86877117	     12.19288475	     13.25090514	     18.08970545	      0.80988522	    183.91376953	      0.12981685	      1.80817608	    -68.69480227	    -23.41236174
      3.07407407	     -0.35373414	     -3.30092007	    105.69574164	      0.26413677	      0.81507764	      0.61125146	     -0.68720542	      0.68673055	    -11.77832604	     13.02686450	      0.22736168	     23.46620220	    -12.46476676	      0.00000000	     -1.62936265	     -2.72629156	      8.93951349	      5.26726743	      0.09193116	     25.73220082	     11.01889666	      0.00000000	     -0.10460762	      0.80223689	      3.66702051	     -0.19426682	      1.06697506	      3.89620929	     -0.17185987	      1.95055877	      3.89620929	     -0.11955605	      1.95055877	      3.20864295	     -0.09713864	      1.63592146	      2.97945417	     -0.05977280	      1.24266494	      2.75026538	     -0.74720180	      9.07506412	     20.39486798	      0.00000000	      0.00000000	     17.22528188	    -14.29125648	    -20.76726862	     31.27440504	    -30.39344781	     43.34826705	    103.89173614	     60.67141034	     10.87420116	     11.59875467	     19.01405326	      1.68814706	    184.22042376	      0.12552538	      1.76827840	    -68.98017004	    -23.53431894
      3.09259259	     -0.28464218	     -2.97235049	    105.94656242	      0.26323521	      0.81554120	      0.61265325	     -0.84957782	      0.76556532	    -12.22558071	     13.33341823	      0.23271205	     23.24394259	    -12.97389296	      0.00000000	     -1.80645289	     -2.85478812	      9.15040035	      5.54313853	      0.09674602	     25.63786921	     10.85110827	      0.00000000	     -0.11124188	      0.82448529	      3.67015661	     -0.20658729	      1.09656544	      3.89954139	     -0.18275928	      2.00465354	      3.89954139	     -0.12713834	      2.00465354	      3.21138703	     -0.10329921	      1.68129041	      2.98200224	     -0.06356361	      1.27712772	      2.75261745	     -0.79458960	      9.32674253	     20.41230999	      0.00000000	      0.00000000	     16.88930303	    -14.55171713	    -20.51728899	     28.23808220	    -31.35538005	     42.85188343	    102.68302743	     61.25528668	      9.62588333	     10.39667893	     20.03246512	      2.63952075	    184.27782980	      0.11993084	      1.65095852	    -69.15162380	    -23.61648063
